<?xml version="1.0" standalone="no"?>
<!DOCTYPE svg PUBLIC "-//W3C//DTD SVG 20010904//EN"
 "http://www.w3.org/TR/2001/REC-SVG-20010904/DTD/svg10.dtd">
<svg version="1.0" xmlns="http://www.w3.org/2000/svg"
 width="1005.000000pt" height="1005.000000pt" viewBox="0 0 1005.000000 1005.000000"
 preserveAspectRatio="xMidYMid meet">
<metadata>
Created by potrace 1.11, written by Peter Selinger 2001-2013
</metadata>
<g transform="translate(0.000000,1005.000000) scale(0.100000,-0.100000)"
fill="#000000" stroke="none">
<path d="M6035 9919 c-22 -4 -63 -14 -92 -20 l-52 -12 57 -28 c31 -16 62 -29
69 -29 6 0 18 -6 26 -14 7 -8 38 -30 68 -50 93 -61 142 -99 198 -154 30 -29
60 -51 67 -48 7 3 11 0 8 -7 -2 -7 16 -34 41 -60 157 -168 302 -450 350 -678
30 -140 42 -264 39 -394 -3 -124 -5 -149 -20 -240 -9 -58 -63 -255 -77 -285
-7 -15 -24 -27 -43 -31 -28 -5 -37 0 -90 51 -88 83 -202 155 -316 197 -31 12
-59 19 -62 16 -3 -3 -12 -1 -20 6 -18 15 -166 41 -238 41 -80 0 -231 -32 -323
-70 -44 -17 -81 -33 -83 -35 -4 -3 73 -54 137 -91 55 -31 146 -115 230 -214
57 -66 124 -179 147 -250 29 -87 5 81 -30 207 -16 58 -30 91 -87 211 -44 93
-45 99 -21 129 16 22 20 22 82 12 36 -5 69 -14 75 -20 5 -5 18 -9 30 -9 29 0
151 -59 220 -106 61 -42 179 -160 212 -211 10 -16 20 -30 23 -33 10 -9 69
-137 76 -164 8 -32 20 -30 105 20 31 19 60 34 63 34 9 0 108 66 135 89 13 12
27 21 30 21 4 0 23 15 42 33 19 17 53 48 75 67 50 45 134 144 134 159 0 6 4
11 9 11 4 0 19 21 32 47 13 27 29 52 36 58 13 11 71 131 98 205 63 165 85 433
52 617 -18 101 -77 284 -109 342 -52 91 -129 207 -165 248 -16 18 -35 40 -44
50 -40 46 -176 162 -220 188 -255 150 -443 206 -691 204 -79 -1 -161 -5 -183
-10z"/>
<path d="M6398 6905 c-2 -2 -32 -6 -68 -9 -117 -12 -324 -47 -383 -65 -18 -5
-59 -17 -92 -26 -90 -24 -111 -31 -225 -70 -126 -43 -426 -189 -528 -257 -41
-26 -76 -48 -78 -48 -6 0 -196 -139 -204 -149 -3 -3 -25 -22 -50 -41 -133
-102 -347 -321 -334 -342 4 -6 3 -8 -3 -5 -27 17 -273 -330 -381 -538 -38 -73
-112 -233 -112 -242 0 -3 -11 -29 -24 -57 -13 -28 -27 -67 -31 -86 -4 -19 -16
-54 -26 -78 -25 -57 -79 -272 -79 -311 0 -16 -4 -32 -9 -35 -4 -3 -11 -27 -14
-53 -3 -27 -13 -106 -21 -178 -9 -71 -16 -162 -16 -202 0 -167 -76 -404 -203
-628 -34 -62 -139 -194 -199 -252 -141 -136 -651 -371 -1038 -478 -249 -69
-424 -98 -494 -82 -170 37 -239 71 -330 160 -96 94 -127 142 -165 257 -28 84
-31 105 -27 185 6 145 18 174 109 263 44 42 87 85 96 95 9 11 48 51 86 90 39
40 88 94 110 121 22 27 53 63 68 80 16 17 41 47 55 66 15 19 37 46 49 59 65
68 311 412 415 581 106 173 277 498 371 709 68 152 62 169 -48 141 -38 -10
-88 -25 -110 -33 -22 -8 -83 -31 -135 -50 -85 -31 -188 -78 -245 -110 -43 -25
-201 -122 -210 -129 -5 -4 -46 -34 -90 -67 -44 -32 -103 -81 -131 -107 -28
-27 -62 -59 -75 -70 -50 -44 -119 -121 -119 -132 0 -7 -4 -12 -8 -12 -21 0
-199 -247 -227 -314 -8 -20 -19 -36 -24 -36 -5 0 -11 -10 -15 -22 -3 -13 -16
-36 -28 -51 l-23 -28 0 198 c-1 197 -10 286 -51 472 -46 217 -179 502 -314
676 -27 35 -50 67 -50 70 0 3 -8 13 -17 23 -10 10 -37 39 -60 66 -64 73 -80
65 -111 -54 -59 -231 -110 -538 -133 -810 -12 -138 -18 -428 -11 -535 31 -432
69 -677 161 -1025 30 -117 84 -289 101 -325 5 -11 16 -42 25 -68 16 -50 99
-257 115 -286 5 -9 35 -70 67 -136 100 -209 322 -585 345 -585 5 0 8 -6 8 -12
1 -7 20 -38 43 -69 23 -31 62 -83 86 -115 24 -32 50 -66 58 -74 7 -8 50 -60
95 -115 118 -143 411 -435 548 -544 23 -19 48 -40 54 -46 25 -25 297 -224 371
-272 99 -63 314 -191 375 -222 25 -12 62 -31 82 -42 201 -102 413 -190 663
-274 204 -69 192 -66 430 -114 179 -37 281 -55 455 -82 111 -16 779 -24 945
-10 236 20 540 72 740 127 375 102 590 182 890 329 246 120 566 314 711 429
28 23 66 52 84 66 247 184 564 497 783 773 66 82 215 286 247 337 160 251 295
501 364 670 15 36 31 74 36 85 33 74 70 172 70 187 0 9 4 19 9 23 8 4 76 207
115 345 64 221 90 596 62 880 -9 91 -21 185 -27 210 -5 25 -12 56 -14 70 -13
69 -27 138 -35 165 -43 157 -96 320 -134 410 -47 116 -170 351 -235 450 -64
99 -175 251 -197 270 -6 6 -18 21 -27 33 -54 82 -296 317 -441 427 -192 147
-443 297 -621 371 -115 48 -182 75 -210 83 -16 5 -82 25 -145 45 -249 79 -523
117 -826 115 -117 -1 -215 -3 -216 -4z m660 -1141 c36 -10 26 -21 -43 -43
-162 -53 -312 -179 -402 -339 -77 -138 -115 -319 -94 -444 21 -124 47 -199
102 -301 29 -54 44 -73 130 -157 357 -352 964 -243 1182 211 21 42 37 81 37
88 0 6 7 11 17 11 33 0 0 -289 -48 -420 -31 -84 -86 -195 -103 -209 -9 -8 -16
-18 -16 -23 0 -16 -92 -128 -151 -184 -152 -144 -374 -250 -574 -275 -117 -15
-309 -5 -405 20 -349 92 -633 355 -739 685 -40 126 -51 197 -51 346 0 216 50
383 168 565 25 39 48 72 51 75 4 3 21 24 39 47 33 42 169 154 250 207 56 35
196 95 242 102 19 3 39 9 44 12 38 23 303 42 364 26z m934 -2964 c173 -11 272
-25 528 -71 30 -5 71 -12 90 -15 19 -3 44 -9 55 -14 11 -5 49 -16 85 -25 36
-9 76 -20 90 -24 14 -5 51 -17 83 -26 31 -9 57 -20 57 -24 0 -6 -32 -67 -130
-246 -18 -33 -36 -61 -41 -63 -5 -2 -9 -9 -9 -16 0 -15 -148 -240 -161 -244
-5 -2 -9 -8 -9 -12 0 -10 -150 -208 -228 -301 -111 -133 -317 -346 -417 -430
-22 -19 -44 -39 -50 -45 -5 -6 -40 -36 -77 -67 -36 -30 -79 -67 -95 -81 -44
-39 -397 -289 -440 -311 -21 -10 -49 -27 -63 -36 -106 -71 -460 -246 -655
-324 -38 -16 -88 -36 -110 -45 -22 -10 -74 -27 -115 -39 -41 -13 -86 -26 -100
-30 -149 -46 -174 -53 -350 -95 -505 -122 -1115 -143 -1690 -60 -111 15 -146
22 -302 54 -54 11 -99 20 -102 20 -10 0 -15 33 -6 48 17 30 70 152 70 161 0 5
3 11 8 13 4 2 27 44 51 93 25 50 78 144 118 210 41 66 79 129 86 140 27 44
140 210 147 215 4 3 16 19 26 36 33 52 193 244 246 294 21 20 38 41 38 47 0 6
4 13 9 15 6 2 66 58 134 125 118 116 171 163 248 225 19 14 59 46 89 70 52 41
164 123 220 161 93 63 169 112 195 127 17 9 73 41 125 72 89 50 210 112 340
171 208 95 663 241 865 277 185 33 233 41 347 55 69 8 153 15 185 16 32 0 66
3 75 7 24 10 350 5 540 -8z"/>
</g>
</svg>
